<?xml version="1.0" encoding="UTF-8" standalone="no"?>
<!-- Created with Inkscape (http://www.inkscape.org/) -->

<svg
   height="200mm"
   width="720mm"
   version="1.1"
   id="svg1"
   xml:space="preserve"
   viewBox="0 0 2721.2599 755.90545"
   xmlns="http://www.w3.org/2000/svg"
   xmlns:svg="http://www.w3.org/2000/svg"
   xmlns:rdf="http://www.w3.org/1999/02/22-rdf-syntax-ns#"
   xmlns:cc="http://creativecommons.org/ns#"
   xmlns:dc="http://purl.org/dc/elements/1.1/"><defs
     id="defs4" /><metadata
     id="metadata7"><rdf:RDF><cc:Work
         rdf:about=""><dc:format>image/svg+xml</dc:format><dc:type
           rdf:resource="http://purl.org/dc/dcmitype/StillImage" /></cc:Work></rdf:RDF></metadata><g
     id="layer1"><path
       id="text1"
       style="font-size:400px;font-family:Designer;-inkscape-font-specification:Designer;font-variant-ligatures:discretionary-ligatures;font-variant-numeric:oldstyle-nums;text-align:center;letter-spacing:0px;word-spacing:0px;text-anchor:middle;fill:#7d44cc;fill-rule:evenodd;stroke-width:4.2;stroke-linecap:round;stroke-linejoin:round"
       d="m 482.90039,175.88086 c -12.8013,0.27474 -24.75789,8.07086 -29.78906,20.75976 l -91.66211,231.17774 c -6.70823,16.91855 1.51117,35.93828 18.42969,42.64648 l 231.17773,91.66407 c 16.91853,6.70821 35.93827,-1.5131 42.64648,-18.43164 l 91.66211,-231.17774 c 6.70822,-16.91855 -1.51116,-35.93828 -18.42968,-42.64648 L 495.75781,178.21094 c -4.22962,-1.67706 -8.59032,-2.42166 -12.85742,-2.33008 z m 1635.17771,61.67187 c -41.2,0 -79.9996,32.40079 -87.5996,72.80079 l -24.4004,134.79882 c -7.2,40.4 20.3992,72.80079 61.1992,72.80078 h 161.6016 c 41.2,0 79.9996,-32.40078 87.5996,-72.80078 l 24.4004,-134.79882 c 7.2,-40.4 -20.4012,-72.80079 -61.2012,-72.80079 z m -2015.19919,0.80079 c -8.800006,0 -17.200394,6.79961 -18.400394,15.5996 L 39.279297,502.75195 c -1.6,8.4 4.399219,15.20117 13.199219,15.20117 h 52.400394 c 8.8,0 16.80039,-6.80117 18.40039,-15.20117 l 25.59961,-140.39843 c 0.4,-3.2 5.19922,-4.00118 7.19921,-1.20118 l 86,151.59961 c 2.40001,3.2 6.40118,5.20118 11.20118,5.20117 h 58 c 8.8,0 16.79843,-6.80117 18.39843,-15.20117 l 45.20118,-248.79883 c 1.2,-8.8 -4.40118,-15.5996 -13.20118,-15.5996 H 309.2793 c -8.8,0 -17.20078,6.79961 -18.80078,15.5996 L 267.2793,383.55273 c -0.8,3.2 -5.20118,3.99922 -7.20118,1.19922 L 180.87891,243.95312 c -2.4,-3.59999 -6.40118,-5.5996 -11.20118,-5.5996 z m 816.80078,0 c -8.8,0 -17.20078,6.79961 -18.80078,15.5996 l -32.80079,181.59961 c -0.79999,5.2 -5.99921,9.19922 -11.19921,9.19922 H 728.47852 c -8.8,0 -17.19883,7.20157 -18.79883,15.60157 l -7.60157,42.39843 c -1.6,8.4 4.40118,15.20117 13.20118,15.20117 h 148 v 0.4004 c 41.2,0 80.39961,-32.80118 87.59961,-73.20118 L 985.2793,253.95312 c 1.6,-8.8 -4.00078,-15.5996 -12.80078,-15.5996 z m 126.39841,0 c -8.8,0 -16.7984,6.79961 -18.3984,15.5996 l -45.20118,248.79883 c -1.6,8.4 4.40117,15.20118 13.20117,15.20117 h 52.79881 c 8.8,0 16.8004,-6.80117 18.4004,-15.20117 l 45.1992,-248.79883 c 1.6,-8.8 -4.3992,-15.5996 -13.1992,-15.5996 z m 102,0 c -6.4,0 -12.3992,6.39843 -11.1992,12.39843 24.8,137.6 17.5992,97.20078 45.1992,256.80078 1.2,6.4 6.4012,10.80079 13.2012,10.80079 h 95.1992 c 6.4,0 13.2008,-4.40079 16.8008,-10.80079 82,-153.6 62.8,-118.00039 138,-256.40039 3.2,-6.4 -0.4008,-12.79882 -6.8008,-12.79882 h -64.4004 c -6.8,0 -13.1988,4.39843 -16.7988,10.39843 l -94,175.60157 c -1.6,3.2 -6.8016,1.99843 -7.6016,-1.60157 l -30.3984,-174 c -1.2,-6 -6.4012,-10.39843 -13.2012,-10.39843 z m 339.6016,0 c -8.8,0 -16.8004,6.79961 -18.4004,15.5996 l -45.2012,248.79883 c -1.6,8.4 4.4012,15.20118 13.2012,15.20117 h 52.7988 c 8.8,0 16.8004,-6.80117 18.4004,-15.20117 l 45.2012,-248.79883 c 1.6,-8.8 -4.4012,-15.5996 -13.2012,-15.5996 z m 179.1992,0 c -40.8,0 -80.0012,32.79921 -87.2012,73.19921 l -5.1992,28.40039 c -7.2,40.4 19.9992,72.79883 61.1992,72.79883 h 126 c 5.2,0 8.8,4.40157 8,9.60157 l -2.3984,13.19921 c -0.8,5.2 -6.0012,9.19922 -11.2012,9.19922 h -175.5996 c -8.8,0 -17.2008,7.20157 -18.8008,15.60157 l -7.5996,42.39843 c -1.6,8.4 4.4012,15.20118 13.2012,15.20117 h 183.1992 v 0.4004 h 8.4004 c 40.8,0 79.9992,-32.80118 87.1992,-73.20118 l 4.8008,-26 c 7.2,-40.4 -20.0012,-73.19921 -61.2012,-73.19922 h -126.3984 c -5.2,0 -8.4016,-4.00117 -7.6016,-9.20117 l 3.2012,-17.59961 c 0.8,-5.2 5.9992,-9.59961 11.1992,-9.59961 h 170.8008 c 8.8,0 17.1988,-6.79961 18.7988,-15.59961 l 7.2012,-40 c 1.6,-8.8 -4.4012,-15.5996 -13.2012,-15.5996 z m 267.5996,0 c -8.8,0 -16.8004,6.79961 -18.4004,15.5996 l -45.1992,248.79883 c -1.6,8.4 4.3992,15.20118 13.1992,15.20117 h 52.8008 c 8.8,0 16.8004,-6.80117 18.4004,-15.20117 l 45.1992,-248.79883 c 1.6,-8.8 -4.3992,-15.5996 -13.1992,-15.5996 z m 475.5996,0 c -8.8,0 -17.2004,6.79961 -18.4004,15.5996 l -45.1992,248.79883 c -1.6,8.4 4.3992,15.20117 13.1992,15.20117 h 52.4004 c 8.8,0 16.8004,-6.80117 18.4004,-15.20117 l 25.5996,-140.39843 c 0.4,-3.2 5.2012,-4.00118 7.2012,-1.20118 l 86,151.59961 c 2.4,3.2 6.3992,5.20118 11.1992,5.20117 h 58 c 8.8,0 16.8004,-6.80117 18.4004,-15.20117 l 45.1992,-248.79883 c 1.2,-8.8 -4.3992,-15.5996 -13.1992,-15.5996 h -52.4004 c -8.8,0 -17.2008,6.79961 -18.8008,15.5996 l -23.1992,129.59961 c -0.8,3.2 -5.1992,3.99922 -7.1992,1.19922 l -79.2012,-140.79883 c -2.4,-3.59999 -6.3992,-5.5996 -11.1992,-5.5996 z M 515.85352,266.68555 c 2.27288,-0.0488 4.59677,0.34698 6.8496,1.24023 l 123.13086,48.82227 c 9.01126,3.57299 13.38938,13.70358 9.81641,22.71484 L 606.82812,462.5957 c -3.57298,9.01126 -13.70359,13.38743 -22.71484,9.81446 L 460.98242,423.58984 c -9.01131,-3.573 -13.38939,-13.70358 -9.8164,-22.71484 l 48.82031,-123.13086 c 2.67974,-6.75844 9.04853,-10.91212 15.86719,-11.05859 z m 11.05468,30.46484 c -4.811,0.10326 -9.30448,3.03399 -11.19531,7.80273 l -34.44922,86.88086 c -2.52108,6.35836 0.56941,13.5082 6.92774,16.0293 l 86.88086,34.44727 c 6.35835,2.5211 13.50623,-0.56742 16.02734,-6.92578 l 34.44922,-86.88086 c 2.5211,-6.35835 -0.56744,-13.5082 -6.92578,-16.0293 l -86.88282,-34.44727 c -1.58959,-0.63027 -3.22836,-0.91137 -4.83203,-0.87695 z m 1597.9707,12.40234 h 121.5996 c 5.2,0 8.8,4.39961 8,9.59961 l -21.2012,116.40039 c -0.8,5.2 -5.9992,9.19922 -11.1992,9.19922 h -121.5996 c -5.2,0 -8.7996,-3.99922 -7.5996,-9.19922 l 20.7988,-116.40039 c 1.2,-5.2 6.0012,-9.59961 11.2012,-9.59961 z" /></g></svg>
